<?xml version="1.0" encoding="UTF-8"?> <svg xmlns="http://www.w3.org/2000/svg" width="29" height="29" viewBox="0 0 29 29" fill="none"> <rect width="29" height="29" rx="2" fill="#E8FAEC"></rect> <path d="M11.6933 14.7664C10.7766 15.2889 8.76912 11.0998 8.36579 10.1098C8.30925 9.97484 8.22125 9.8554 8.10912 9.76143C7.96461 9.66621 7.80256 9.60077 7.63245 9.56893H4.68995C4.68995 9.56893 4.24079 9.59643 4.07579 9.78893C3.91079 9.98143 4.06662 10.3389 4.06662 10.3389C4.06662 10.3389 6.37662 15.5548 8.98912 18.2773C9.62944 18.9915 10.4205 19.5545 11.3052 19.9255C12.1898 20.2965 13.1459 20.4662 14.1041 20.4223C14.7159 20.4545 15.3294 20.433 15.9375 20.3581C16.4325 19.8264 15.8091 18.3873 16.8541 18.0573C17.615 17.8189 18.5866 19.6798 19.6041 20.3856C19.9933 20.6944 20.4833 20.8479 20.9791 20.8164H23.7291C23.7291 20.8164 25.1683 20.7339 24.49 19.5973C23.948 18.6984 23.2567 17.8987 22.4458 17.2323C20.6766 15.5639 20.9058 15.8389 22.9866 13.0889C24.2516 11.4023 24.7558 10.3389 24.6 9.92643C24.4441 9.51393 23.4908 9.58726 23.4908 9.58726H20.3925C20.2537 9.57127 20.1134 9.59679 19.9891 9.6606C19.8711 9.74562 19.7765 9.85915 19.7141 9.9906C19.2833 11.1273 17.2483 15.2706 16.405 14.7298C15.2866 14.0056 16.9641 9.56893 15.3416 9.17476C14.8679 9.05935 14.3805 9.01 13.8933 9.0281C13.0256 8.94838 12.1506 9.03868 11.3175 9.29393C10.9691 9.4681 10.6941 9.8531 10.8591 9.87143C11.2118 9.9022 11.5396 10.0661 11.7758 10.3298C12.2433 10.9348 12.3258 14.4181 11.6933 14.7664Z" stroke="black" stroke-width="1.5" stroke-linecap="round" stroke-linejoin="round"></path> </svg> 