<?xml version="1.0" encoding="UTF-8"?> <svg xmlns="http://www.w3.org/2000/svg" width="78" height="53" viewBox="0 0 78 53" fill="none"> <rect x="0.504612" y="0.498472" width="24.4397" height="11.916" rx="1.5" transform="matrix(0.999995 -0.0030132 0.00922759 0.999957 11.847 24.2345)" stroke="black"></rect> <rect x="0.504672" y="0.498491" width="24.4397" height="11.916" rx="1.5" transform="matrix(0.999996 -0.00297457 0.00934741 0.999956 40.7922 24.2552)" stroke="black"></rect> <rect x="0.504672" y="0.498491" width="24.4397" height="11.916" rx="1.5" transform="matrix(0.999996 -0.00297457 0.00934741 0.999956 40.7922 39.6551)" stroke="black"></rect> <rect x="0.504672" y="0.498491" width="24.4397" height="11.916" rx="1.5" transform="matrix(0.999996 -0.00297457 0.00934741 0.999956 12.1926 39.6551)" stroke="black"></rect> <path d="M39.2681 0.762549L69.6032 20.0279C70.0256 20.2962 69.8356 20.95 69.3351 20.95H8.66489C8.16444 20.95 7.97437 20.2962 8.39685 20.0279L38.7319 0.76255C38.8955 0.658649 39.1045 0.658649 39.2681 0.762549Z" fill="black" stroke="black"></path> </svg> 